<svg width="512" height="512" viewBox="0 0 512 512" fill="none" xmlns="http://www.w3.org/2000/svg" role="img" aria-label="Orleans.FSharp logo">
  <defs>
    <linearGradient id="bg" x1="96" y1="96" x2="416" y2="416" gradientUnits="userSpaceOnUse">
      <stop stop-color="#1E3A8A"/>
      <stop offset="1" stop-color="#2563EB"/>
    </linearGradient>

    <linearGradient id="core" x1="176" y1="176" x2="336" y2="336" gradientUnits="userSpaceOnUse">
      <stop stop-color="#0F172A"/>
      <stop offset="1" stop-color="#1E293B"/>
    </linearGradient>

    <linearGradient id="accent" x1="170" y1="170" x2="342" y2="342" gradientUnits="userSpaceOnUse">
      <stop stop-color="#67E8F9"/>
      <stop offset="1" stop-color="#A78BFA"/>
    </linearGradient>

    <filter id="softShadow" x="0" y="0" width="512" height="512" filterUnits="userSpaceOnUse" color-interpolation-filters="sRGB">
      <feDropShadow dx="0" dy="8" stdDeviation="14" flood-opacity="0.18"/>
    </filter>
  </defs>

  <circle cx="256" cy="256" r="208" fill="url(#bg)"/>

  <g stroke="#BFDBFE" stroke-opacity="0.7" stroke-width="12" stroke-linecap="round">
    <line x1="256" y1="156" x2="256" y2="98"/>
    <line x1="342.6" y1="206" x2="392.8" y2="177"/>
    <line x1="342.6" y1="306" x2="392.8" y2="335"/>
    <line x1="256" y1="356" x2="256" y2="414"/>
    <line x1="169.4" y1="306" x2="119.2" y2="335"/>
    <line x1="169.4" y1="206" x2="119.2" y2="177"/>
  </g>

  <g filter="url(#softShadow)">
    <circle cx="256" cy="82" r="26" fill="#E0F2FE"/>
    <circle cx="406.7" cy="169" r="26" fill="#C4B5FD"/>
    <circle cx="406.7" cy="343" r="26" fill="#E0F2FE"/>
    <circle cx="256" cy="430" r="26" fill="#C4B5FD"/>
    <circle cx="105.3" cy="343" r="26" fill="#E0F2FE"/>
    <circle cx="105.3" cy="169" r="26" fill="#C4B5FD"/>
  </g>

  <g filter="url(#softShadow)">
    <circle cx="256" cy="256" r="108" fill="url(#core)" stroke="url(#accent)" stroke-width="10"/>
  </g>

  <!-- Central F glyph -->
  <g filter="url(#softShadow)" stroke="url(#accent)" stroke-width="18" stroke-linecap="round" stroke-linejoin="round">
    <path d="M216 184V328"/>
    <path d="M216 184H304"/>
    <path d="M216 248H286"/>
  </g>

  <circle cx="216" cy="184" r="8" fill="#67E8F9"/>
  <circle cx="304" cy="184" r="8" fill="#A78BFA"/>
  <circle cx="286" cy="248" r="8" fill="#A78BFA"/>
  <circle cx="216" cy="328" r="8" fill="#67E8F9"/>

  <circle cx="256" cy="256" r="146" stroke="#FFFFFF" stroke-opacity="0.08" stroke-width="4"/>
</svg>
